<?xml version="1.0" standalone="no"?>
<!DOCTYPE svg PUBLIC "-//W3C//DTD SVG 20010904//EN"
 "http://www.w3.org/TR/2001/REC-SVG-20010904/DTD/svg10.dtd">
<svg version="1.0" xmlns="http://www.w3.org/2000/svg"
 width="500.000000pt" height="500.000000pt" viewBox="0 0 500.000000 500.000000"
 preserveAspectRatio="xMidYMid meet">

<g transform="translate(0.000000,500.000000) scale(0.100000,-0.100000)"
fill="#000000" stroke="none">
<path d="M2384 3938 c-3 -5 -12 -7 -20 -4 -17 7 -46 -3 -39 -14 3 -4 -4 -19
-15 -33 -11 -14 -20 -32 -20 -41 0 -9 -16 -26 -36 -38 l-36 -21 27 -15 27 -14
-23 -12 c-30 -14 -38 -46 -12 -46 15 -1 13 -5 -9 -21 -34 -25 -35 -37 -5 -48
23 -9 23 -10 -28 -26 -13 -4 -14 -9 -5 -25 6 -11 15 -18 21 -15 5 4 9 -3 9
-13 0 -13 -6 -19 -17 -18 -25 2 -30 -41 -6 -47 15 -3 13 -6 -9 -15 -32 -13
-36 -27 -12 -40 19 -10 11 -32 -12 -32 -19 0 -18 -36 2 -44 20 -8 9 -26 -16
-26 -14 0 -18 -5 -13 -17 4 -10 11 -21 15 -24 5 -3 3 -21 -6 -40 -8 -19 -15
-28 -15 -21 -1 6 -5 12 -11 12 -5 0 -10 -19 -10 -43 0 -35 6 -49 30 -72 17
-16 30 -25 30 -20 0 4 8 1 18 -7 29 -25 96 -63 88 -50 -4 7 9 3 29 -9 24 -14
34 -27 31 -38 -3 -9 -8 -37 -12 -63 -3 -27 -10 -48 -15 -48 -17 0 -9 -39 11
-53 32 -22 50 -68 50 -130 l0 -58 -139 7 c-94 5 -159 3 -203 -5 -169 -32 -265
-145 -403 -476 -16 -38 -18 -39 -27 -18 -12 25 -60 48 -83 39 -33 -12 0 -87
45 -101 12 -4 20 -16 21 -28 0 -12 3 -16 6 -9 8 20 23 14 23 -10 1 -27 43 -78
65 -78 8 0 15 -5 15 -12 0 -9 3 -9 12 0 17 17 38 15 38 -5 0 -9 13 1 31 26 29
40 32 42 52 28 12 -8 24 -23 26 -33 3 -16 1 -17 -13 -5 -22 19 -34 5 -14 -16
9 -8 24 -13 32 -10 26 10 18 45 -14 69 -16 12 -30 25 -30 29 0 15 119 160 156
190 77 62 137 82 259 87 61 2 125 0 143 -5 45 -11 226 3 280 23 76 28 124 89
220 281 95 194 144 259 223 299 60 30 70 30 99 -1 13 -14 26 -23 28 -20 3 3
-5 16 -18 30 -18 19 -20 26 -9 29 37 12 124 26 207 32 51 4 92 11 92 16 0 5
-25 6 -59 2 l-58 -6 -12 32 c-18 53 -15 56 57 67 l67 11 -74 -1 c-74 -2 -75
-2 -87 28 -22 51 -19 53 66 61 44 3 80 11 80 15 0 10 -22 10 -103 0 -61 -7
-69 -4 -81 36 -6 20 -2 22 69 34 71 11 111 29 66 29 -30 0 -28 43 2 58 30 15
11 15 -110 1 -194 -21 -342 -72 -423 -145 -39 -36 -40 -36 -63 -17 -12 10 -21
26 -19 36 2 9 -4 20 -12 23 -9 3 -16 12 -16 20 0 8 6 11 15 8 26 -11 37 6 21
32 -21 30 -20 34 4 34 24 0 26 22 5 40 -21 18 -19 29 5 23 15 -4 20 0 20 15 0
12 -4 24 -10 27 -15 9 -12 25 4 19 20 -7 28 23 11 40 -21 21 -18 35 5 29 24
-6 28 18 5 37 -21 18 -19 33 5 27 24 -6 28 24 5 43 -8 7 -15 24 -15 39 -1 14
-15 51 -33 81 -27 44 -45 61 -93 87 -33 18 -80 35 -105 38 l-44 6 33 -15 c42
-20 132 -112 132 -136 0 -10 5 -22 10 -25 6 -3 10 -15 10 -26 0 -11 -4 -18 -9
-15 -12 8 -21 -18 -21 -57 -1 -18 -7 -60 -14 -94 -7 -35 -10 -60 -5 -57 10 6
4 -31 -22 -138 -22 -87 -27 -174 -11 -190 7 -7 17 -6 31 1 14 8 27 9 39 2 47
-25 46 -31 -38 -204 -86 -175 -136 -244 -201 -277 -21 -11 -41 -20 -44 -20 -3
0 -5 15 -5 33 0 18 -6 39 -12 46 -11 11 -9 11 9 2 24 -12 73 -15 73 -3 0 4
-15 14 -33 22 -17 8 -34 24 -36 35 -3 17 -1 18 13 6 22 -18 20 -5 -5 36 -21
34 -21 35 -4 98 l17 64 61 -6 c44 -5 58 -3 53 5 -4 7 -13 12 -21 12 -7 0 -15
6 -18 14 -3 8 -30 21 -60 30 -30 9 -64 24 -76 33 -24 19 -44 87 -35 116 8 25
-42 23 -56 -2 -15 -29 -12 -77 6 -96 21 -21 110 -66 149 -76 l30 -7 -35 -1
c-19 0 -48 6 -65 15 -16 9 -38 18 -49 20 -28 5 -51 30 -53 55 -1 13 -7 35 -14
51 -8 20 -8 32 -1 41 6 7 7 18 2 26 -12 20 -1 41 21 41 19 0 37 -4 182 -40 80
-20 102 -19 111 6 6 16 -74 43 -211 69 -51 10 -93 22 -93 28 0 14 116 1 192
-23 89 -26 122 -29 126 -8 4 21 -68 48 -210 78 -59 12 -105 27 -102 31 3 5 10
6 17 2 6 -3 30 -6 54 -4 25 1 81 -9 127 -24 97 -29 136 -32 136 -9 0 18 -39
35 -140 60 -41 10 -77 21 -80 24 -3 3 -15 5 -27 5 -13 0 -23 5 -23 10 1 16 86
6 163 -21 89 -30 117 -31 117 -4 0 15 -16 24 -77 43 -43 14 -104 30 -135 37
-69 14 -79 35 -14 28 24 -3 85 -18 136 -33 77 -24 93 -26 100 -14 6 9 5 18 -3
26 -12 12 -208 75 -223 72 -19 -3 -34 1 -34 11 0 19 68 10 168 -24 56 -19 103
-31 106 -28 4 3 6 13 6 23 0 19 -95 58 -195 79 -76 17 -92 30 -34 30 24 0 87
-15 140 -34 l97 -33 0 23 c0 12 -8 26 -17 29 -73 30 -186 65 -211 65 -20 0
-30 5 -30 15 0 21 59 11 167 -26 95 -34 116 -36 111 -11 -4 21 -141 79 -211
88 -27 4 -51 12 -53 18 -2 6 2 34 9 63 l14 52 -49 -1 c-26 0 -51 -4 -54 -10z
m995 -592 c15 -18 3 -46 -20 -46 -22 0 -34 22 -25 45 7 19 30 19 45 1z m-69
-10 c0 -8 3 -21 6 -30 5 -12 0 -16 -19 -16 -24 0 -37 16 -37 46 0 8 10 14 25
14 15 0 25 -6 25 -14z m-66 -12 c17 -43 -11 -61 -65 -41 -28 11 -33 10 -52
-14 -12 -15 -47 -39 -77 -54 -30 -15 -81 -50 -113 -77 -56 -49 -58 -50 -82
-34 -14 9 -25 22 -25 28 0 23 107 115 166 143 58 28 178 63 220 64 12 1 25 -6
28 -15z m-80 -64 c-10 -4 -21 -6 -24 -3 -8 7 24 22 34 16 5 -4 1 -10 -10 -13z
m110 -26 c4 -15 5 -29 2 -31 -8 -8 -90 -22 -98 -17 -4 2 3 20 15 39 28 44 71
49 81 9z m-86 4 c-5 -16 -48 -24 -48 -9 0 8 17 16 43 20 5 0 7 -5 5 -11z
m-403 -18 c3 -5 -1 -10 -9 -10 -9 0 -16 5 -16 10 0 6 4 10 9 10 6 0 13 -4 16
-10z m360 -22 c15 -22 14 -23 -22 -35 -39 -14 -47 -11 -57 24 -5 16 -2 23 11
26 37 10 52 6 68 -15z m-85 -43 c0 -21 -32 -27 -49 -10 -15 15 -14 18 3 30 21
16 46 4 46 -20z m245 -7 c16 -38 12 -43 -32 -53 -27 -5 -34 -2 -57 28 -32 41
-32 44 -3 50 62 12 78 8 92 -25z m-110 -23 c11 -19 17 -36 15 -38 -3 -1 -31
-11 -64 -21 l-59 -18 -25 26 c-31 30 -26 37 43 65 67 27 69 26 90 -14z m-201
9 c10 -26 7 -32 -29 -60 -29 -22 -38 -24 -50 -14 -14 12 -11 18 22 52 41 42
48 45 57 22z m-830 -10 c5 -14 4 -15 -9 -4 -17 14 -19 20 -6 20 5 0 12 -7 15
-16z m57 -26 c11 -21 11 -22 -4 -9 -10 7 -17 17 -17 22 0 15 9 10 21 -13z
m637 -20 c8 -11 5 -23 -13 -54 -13 -21 -25 -33 -25 -26 0 6 -9 21 -20 32 -19
19 -19 22 -5 50 13 25 19 29 34 21 10 -6 23 -16 29 -23z m184 -5 c24 -21 23
-31 -4 -54 -29 -23 -46 -24 -70 -2 -18 16 -18 17 9 45 31 32 40 34 65 11z
m296 -28 c7 -21 11 -40 9 -42 -2 -2 -46 -11 -97 -20 l-93 -17 -23 30 c-13 16
-24 32 -24 35 0 3 25 13 56 23 56 18 56 18 80 -5 13 -12 24 -17 24 -11 0 6 -4
14 -10 17 -18 11 -10 24 18 28 42 6 46 3 60 -38z m-438 -43 c-40 -70 -48 -78
-65 -61 -13 13 -11 21 17 66 27 44 35 50 50 42 18 -10 18 -11 -2 -47z m75 -12
c6 -10 -53 -99 -66 -100 -3 0 -13 8 -22 18 -15 16 -14 21 14 65 25 41 32 46
49 37 10 -5 22 -15 25 -20z m140 0 c16 -16 27 -31 24 -33 -2 -1 -21 -10 -41
-19 -20 -10 -55 -34 -78 -54 -39 -35 -41 -36 -65 -20 -14 9 -25 18 -25 19 0
24 120 136 146 137 5 0 23 -13 39 -30z m-335 -40 c12 0 13 -27 1 -34 -5 -3
-19 2 -31 12 -20 16 -21 21 -10 42 l13 24 8 -22 c5 -12 13 -22 19 -22z m44
-26 c16 -6 22 -35 9 -47 -10 -11 -33 13 -33 34 0 21 1 22 24 13z m-70 -27 c7
-11 6 -26 -7 -52 -14 -30 -21 -35 -40 -29 -33 10 -33 11 -9 60 23 46 37 51 56
21z m-364 -7 c0 -5 7 -7 15 -4 17 7 21 -21 5 -31 -12 -7 -5 -44 16 -96 19 -43
15 -103 -6 -107 -9 -1 -16 6 -17 20 -1 13 -4 50 -6 83 -5 67 -14 96 -33 108
-7 4 -11 14 -8 22 7 17 34 21 34 5z m510 -16 c0 -3 -5 -14 -11 -25 -8 -16 -13
-18 -25 -8 -14 12 -19 41 -8 52 7 7 44 -10 44 -19z m-82 -20 c6 -4 -81 -184
-88 -184 -4 0 -13 13 -20 29 -11 26 -8 36 30 105 37 67 44 75 59 64 9 -7 17
-13 19 -14z m133 -4 c16 -9 17 -14 6 -30 -20 -34 -64 -18 -52 19 7 23 17 26
46 11z m-92 -24 c18 -21 -76 -221 -95 -205 -8 6 -14 19 -14 28 0 20 81 191 90
191 4 0 13 -6 19 -14z m-153 -31 c8 -20 -13 -45 -32 -38 -14 5 -19 34 -7 46
11 12 33 7 39 -8z m-243 -15 c3 -11 3 -20 1 -20 -2 0 -8 9 -14 20 -6 11 -7 20
-2 20 6 0 12 -9 15 -20z m441 14 c24 -9 21 -21 -35 -138 -42 -90 -53 -106 -65
-96 -8 7 -14 18 -14 24 0 10 91 216 96 216 1 0 9 -3 18 -6z m-234 -69 c0 -5
-17 -30 -38 -55 l-39 -44 -15 29 c-14 29 -14 31 25 72 37 38 42 41 53 25 8 -9
13 -21 14 -27z m37 -98 c-28 -43 -86 -95 -117 -105 -28 -10 -32 -9 -40 14 -16
40 -12 49 24 66 18 9 51 37 72 61 l39 45 19 -29 c16 -26 17 -32 3 -52z m-201
-1 c7 -29 -1 -46 -22 -46 -9 0 -14 11 -14 35 0 41 26 49 36 11z m-315 -12 c5
-15 7 -29 4 -32 -3 -3 -34 -7 -69 -10 l-64 -4 -4 36 -4 36 63 0 c59 0 64 -2
74 -26z m115 -6 c-3 -28 -8 -33 -32 -36 -34 -3 -59 14 -69 46 -6 21 -4 22 49
22 l56 0 -4 -32z m137 5 c5 -28 -6 -43 -31 -43 -8 0 -10 8 -6 28 13 51 29 58
37 15z m-399 2 c8 -22 -4 -45 -24 -45 -10 0 -20 7 -24 15 -8 22 4 45 24 45 10
0 20 -7 24 -15z m716 -22 c0 -24 -60 -100 -99 -127 -58 -39 -79 -42 -91 -11
-5 14 -10 28 -10 31 0 2 20 14 46 25 25 12 63 43 86 70 32 38 44 46 55 38 7
-6 13 -18 13 -26z m-776 -5 c3 -17 5 -32 4 -33 -2 -1 -24 -13 -49 -28 l-46
-26 -12 25 c-15 33 -16 30 31 64 52 38 64 38 72 -2z m545 -45 c7 -14 8 -29 4
-34 -4 -4 -45 -10 -90 -13 -75 -6 -83 -5 -93 13 -5 11 -10 26 -10 35 0 18 37
17 45 -2 4 -11 8 -11 21 2 22 23 44 20 45 -6 1 -21 2 -21 6 -3 11 42 54 47 72
8z m271 -12 c0 -23 -50 -99 -88 -135 -17 -16 -55 -37 -84 -47 -55 -18 -70 -17
-50 3 7 7 12 23 12 38 1 20 11 30 53 50 36 17 64 41 91 78 31 41 42 50 52 41
8 -6 14 -19 14 -28z m-582 17 c7 -7 12 -20 12 -29 0 -14 -13 -18 -77 -21 -73
-4 -79 -3 -102 21 l-25 26 45 6 c78 11 135 9 147 -3z m104 -11 c4 -7 8 -20 8
-31 0 -16 -5 -18 -32 -12 -34 6 -58 29 -58 54 0 11 8 13 37 7 21 -4 41 -12 45
-18z m-287 -17 c22 -25 17 -30 -48 -53 -80 -28 -81 -28 -97 -18 -12 8 -12 13
4 30 19 21 93 61 112 61 6 0 19 -9 29 -20z m-196 -65 c0 -5 -13 -26 -29 -45
-26 -31 -31 -33 -44 -20 -14 13 -12 20 15 64 28 45 31 47 44 30 8 -11 14 -23
14 -29z m712 9 c5 -15 7 -29 4 -33 -10 -9 -149 -13 -161 -4 -6 4 -14 18 -18
30 -7 21 -4 22 71 26 43 1 81 4 86 5 4 1 12 -10 18 -24z m-456 -21 c9 -13 15
-26 13 -27 -2 -1 -23 -7 -48 -14 -25 -7 -52 -15 -60 -18 -15 -5 -75 34 -66 43
12 13 121 51 132 46 7 -2 20 -16 29 -30z m165 18 c19 -36 12 -41 -52 -41 -67
0 -72 2 -102 38 l-19 22 81 0 c70 0 83 -3 92 -19z m87 7 c6 -7 13 -21 16 -30
5 -15 0 -18 -32 -18 -31 0 -40 5 -49 25 -7 14 -12 28 -12 30 0 11 68 4 77 -7z
m-457 -47 c-1 -22 -97 -124 -110 -116 -17 11 -11 25 35 85 30 39 51 57 60 54
8 -4 15 -14 15 -23z m54 -32 l27 -21 -57 -54 c-59 -57 -74 -63 -94 -39 -9 11
-9 18 2 33 22 32 83 100 89 101 4 1 18 -8 33 -20z m352 -14 c7 -19 14 -36 14
-37 0 -2 -41 -5 -92 -6 -112 -4 -180 -26 -254 -83 -53 -40 -55 -41 -74 -24
-18 17 -19 19 -2 39 9 12 34 38 56 56 l38 34 39 -22 c45 -26 52 -20 13 11
l-26 20 25 13 c13 7 43 16 65 20 36 6 42 3 57 -20 10 -14 22 -26 27 -26 6 0 3
11 -6 25 -9 13 -16 27 -16 30 0 3 27 5 61 5 59 0 60 -1 75 -35z m84 6 c0 -11
3 -26 6 -35 10 -26 -42 -20 -60 6 -25 35 -20 48 19 48 28 0 35 -4 35 -19z
m-690 -181 c-30 -60 -58 -110 -62 -110 -20 0 -15 26 21 107 67 152 62 146 80
128 14 -13 10 -26 -39 -125z m90 83 c0 -16 -95 -213 -103 -213 -22 0 -14 39
26 124 29 61 51 96 61 96 9 0 16 -3 16 -7z m49 -37 c10 -11 3 -28 -33 -84 -43
-67 -76 -97 -76 -67 0 8 15 48 34 89 35 75 52 90 75 62z m61 -40 c9 -12 2 -27
-38 -80 -37 -47 -53 -61 -61 -53 -16 16 -14 24 25 88 36 60 52 70 74 45z
m-325 -52 c48 -52 24 -74 -26 -25 -16 16 -29 34 -29 40 0 20 31 11 55 -15z
m109 -102 c8 -13 -11 -35 -23 -28 -16 10 -14 36 3 36 8 0 17 -4 20 -8z m106
-2 c0 -5 -2 -10 -4 -10 -3 0 -8 5 -11 10 -3 6 -1 10 4 10 6 0 11 -4 11 -10z
m-63 -32 c-3 -7 -5 -2 -5 12 0 14 2 19 5 13 2 -7 2 -19 0 -25z m63 4 c0 -5 -9
-17 -19 -26 -24 -22 -81 -13 -81 11 0 14 2 14 18 0 24 -22 29 -21 35 3 5 19
47 30 47 12z"/>
<path d="M2456 2455 c-3 -8 -1 -15 4 -15 6 0 10 7 10 15 0 8 -2 15 -4 15 -2 0
-6 -7 -10 -15z"/>
<path d="M2390 2451 c0 -6 4 -13 10 -16 6 -3 7 1 4 9 -7 18 -14 21 -14 7z"/>
<path d="M2530 3939 c0 -5 -5 -7 -12 -3 -7 4 -8 3 -4 -4 4 -6 -2 -17 -14 -24
-22 -14 -27 -37 -7 -39 28 -3 43 4 60 27 15 19 28 24 65 25 l47 1 -40 13 c-49
17 -95 19 -95 4z"/>
<path d="M2276 3894 c-11 -28 -6 -39 9 -20 8 11 15 23 15 28 0 14 -18 9 -24
-8z"/>
<path d="M2701 3444 c0 -11 3 -14 6 -6 3 7 2 16 -1 19 -3 4 -6 -2 -5 -13z"/>
<path d="M2681 3354 c0 -11 3 -14 6 -6 3 7 2 16 -1 19 -3 4 -6 -2 -5 -13z"/>
<path d="M2483 2903 c-3 -10 -8 -22 -11 -28 -3 -5 3 -3 14 6 34 28 41 30 37 6
-18 -103 -13 -127 29 -127 29 0 34 30 10 71 -12 21 -22 46 -22 55 0 14 6 12
30 -11 34 -33 36 -31 14 13 -13 28 -21 32 -55 32 -29 0 -41 -5 -46 -17z"/>
<path d="M2655 2320 c-16 -4 -46 -15 -65 -26 l-35 -19 29 -3 c46 -6 95 7 106
28 13 23 3 29 -35 20z"/>
<path d="M2510 2260 c-12 -8 -11 -10 7 -10 12 0 25 5 28 10 8 13 -15 13 -35 0z"/>
<path d="M2426 2251 c5 -4 21 -11 37 -15 20 -5 27 -3 27 9 0 11 -11 15 -37 15
-22 0 -33 -4 -27 -9z"/>
<path d="M1027 1753 c-4 -3 -7 -84 -7 -180 l0 -173 33 -1 c52 -2 71 2 89 18
24 22 33 79 20 128 -6 22 -7 58 -3 80 15 87 -14 135 -82 135 -24 0 -47 -3 -50
-7z m77 -39 c20 -8 31 -66 17 -93 -7 -12 -20 -21 -30 -21 -15 0 -19 10 -24 53
-6 67 -1 76 37 61z m20 -180 c19 -49 2 -94 -35 -94 -28 0 -29 1 -29 55 0 54 1
55 29 55 17 0 31 -6 35 -16z"/>
<path d="M1464 1750 c-22 -8 -54 -65 -54 -95 0 -26 18 -54 67 -100 36 -35 44
-49 41 -72 -4 -34 -40 -44 -69 -17 -18 16 -21 16 -36 2 -14 -15 -13 -18 10
-42 45 -45 116 -32 136 24 17 49 3 87 -50 138 -51 49 -61 79 -33 106 14 14 18
14 44 1 25 -13 29 -13 35 3 4 11 -2 24 -20 39 -28 25 -38 26 -71 13z"/>
<path d="M1719 1731 c-23 -24 -29 -38 -29 -73 0 -40 5 -48 50 -91 37 -35 50
-55 50 -75 0 -50 -30 -60 -72 -25 -18 16 -38 10 -38 -12 0 -26 42 -55 80 -55
44 0 69 23 76 72 8 45 -14 87 -66 128 -43 34 -50 62 -24 91 15 17 19 17 45 4
26 -14 29 -14 39 5 9 17 6 23 -22 40 -44 26 -54 25 -89 -9z"/>
<path d="M1963 1753 c-10 -4 -13 -49 -13 -179 0 -167 1 -174 20 -174 19 0 20
7 21 108 0 88 2 102 11 77 6 -16 17 -46 25 -65 l15 -35 23 65 23 65 1 -107 c1
-106 1 -108 24 -108 23 0 23 1 21 118 -2 64 -3 143 -4 175 0 49 -3 57 -19 57
-14 0 -24 -16 -41 -70 -12 -38 -26 -70 -29 -70 -4 0 -17 31 -30 70 -23 73 -28
80 -48 73z"/>
<path d="M2428 1753 c-37 -10 -68 -96 -48 -133 7 -12 32 -41 57 -65 36 -35 44
-49 41 -72 -4 -34 -40 -44 -68 -18 -22 19 -40 12 -40 -15 0 -39 75 -64 120
-40 24 13 41 64 33 101 -3 18 -26 49 -54 77 -51 49 -61 79 -33 106 14 14 18
14 44 1 25 -13 29 -13 35 3 4 11 -2 24 -20 39 -26 23 -34 25 -67 16z"/>
<path d="M3112 1752 c-9 -6 -12 -50 -10 -181 l3 -174 60 0 c57 0 60 2 63 27 3
25 1 26 -42 26 l-46 0 0 38 c0 62 10 82 41 89 22 4 29 11 29 29 0 21 -5 24
-35 24 -29 0 -35 4 -35 21 0 39 19 59 56 59 31 0 35 3 32 23 -3 19 -10 22 -53
25 -27 1 -56 -2 -63 -6z"/>
<path d="M3408 1648 l-3 -112 -44 107 c-38 94 -46 107 -67 107 l-24 0 0 -175
c0 -168 1 -175 20 -175 19 0 20 7 20 105 0 58 3 105 8 105 4 0 25 -42 46 -93
46 -107 52 -117 77 -117 18 0 19 10 19 174 0 179 -2 186 -40 186 -5 0 -11 -50
-12 -112z"/>
<path d="M3660 1750 c-12 -7 -16 -42 -19 -176 -2 -105 1 -169 7 -173 5 -3 37
-4 71 -3 57 4 61 5 61 28 0 22 -4 24 -45 24 l-45 0 0 60 0 59 35 7 c28 5 35
11 35 30 0 21 -5 24 -36 24 -35 0 -35 1 -32 38 3 36 4 37 46 40 38 3 43 6 40
25 -3 19 -10 22 -53 25 -27 1 -57 -2 -65 -8z"/>
<path d="M1265 1741 c-9 -16 -73 -340 -67 -346 15 -15 32 -1 42 35 10 38 13
40 49 40 36 0 39 -2 45 -35 5 -26 12 -35 26 -35 11 0 20 3 20 8 0 4 -14 82
-32 174 -31 156 -35 168 -55 168 -12 0 -24 -4 -28 -9z m28 -229 c-14 -2 -27
-1 -29 1 -3 3 1 36 8 73 l13 69 16 -70 16 -70 -24 -3z"/>
<path d="M1600 1575 c0 -168 1 -175 20 -175 19 0 20 7 20 175 0 168 -1 175
-20 175 -19 0 -20 -7 -20 -175z"/>
<path d="M2560 1575 c0 -168 1 -175 20 -175 19 0 20 7 20 175 0 168 -1 175
-20 175 -19 0 -20 -7 -20 -175z"/>
<path d="M2676 1725 c-30 -33 -48 -95 -47 -170 1 -100 34 -155 96 -155 37 0
71 31 61 55 -5 15 -8 15 -28 1 -30 -21 -44 -20 -68 4 -37 37 -21 215 23 242 6
4 22 0 35 -8 37 -24 53 -2 22 31 -30 32 -65 32 -94 0z"/>
<path d="M2948 1723 c-14 -16 -31 -45 -37 -65 -13 -40 -16 -145 -6 -180 13
-41 56 -78 90 -78 37 0 71 31 61 55 -5 15 -8 15 -28 1 -30 -21 -44 -20 -68 4
-37 37 -21 215 23 242 6 4 22 0 35 -8 37 -24 53 -2 22 31 -30 32 -60 32 -92
-2z"/>
<path d="M3487 1743 c-4 -3 -7 -15 -7 -25 0 -13 7 -18 25 -18 l25 0 0 -155 c0
-148 1 -155 20 -155 19 0 20 7 20 155 l0 155 25 0 c20 0 25 5 25 25 0 24 -2
25 -63 25 -35 0 -67 -3 -70 -7z"/>
<path d="M3814 1573 c1 -159 3 -178 18 -181 14 -3 17 6 20 55 4 79 25 82 61 8
20 -40 32 -55 48 -55 22 0 21 17 -8 74 -13 25 -13 33 7 79 17 38 21 64 18 104
-7 76 -26 93 -103 93 l-62 0 1 -177z m100 122 c21 -22 31 -82 17 -111 -9 -21
-58 -51 -67 -41 -4 4 -8 102 -6 140 2 31 30 37 56 12z"/>
<path d="M2170 1610 c0 -148 12 -195 54 -206 35 -8 64 3 84 34 13 20 17 55 20
164 4 132 3 138 -16 138 -18 0 -20 -9 -24 -123 -5 -126 -17 -171 -46 -165 -24
5 -30 39 -31 171 -1 110 -2 117 -21 117 -19 0 -20 -7 -20 -130z"/>
<path d="M2430 1225 c0 -21 -5 -25 -30 -25 -38 0 -57 -34 -43 -77 8 -24 15
-28 51 -29 l42 -2 0 79 c0 46 -4 79 -10 79 -5 0 -10 -11 -10 -25z m-16 -41
c20 -8 21 -57 2 -73 -29 -24 -62 39 -34 67 14 14 12 14 32 6z"/>
<path d="M2226 1218 c-36 -51 -9 -128 44 -128 36 0 60 32 60 81 0 63 -70 95
-104 47z m65 2 c24 -14 26 -81 3 -105 -14 -14 -19 -14 -38 -2 -27 18 -34 78
-11 101 19 19 21 19 46 6z"/>
<path d="M2490 1185 c-16 -20 -16 -61 0 -80 16 -19 62 -16 68 5 4 12 3 13 -10
2 -18 -14 -44 -7 -52 14 -4 11 4 14 34 14 32 0 40 4 40 18 0 39 -55 57 -80 27z
m58 -12 c2 -8 -6 -13 -22 -13 -25 0 -33 10 -19 24 10 10 36 3 41 -11z"/>
<path d="M2594 1185 c-8 -20 13 -45 37 -45 23 0 35 -20 18 -31 -8 -5 -23 -2
-36 7 -20 13 -23 13 -23 -1 0 -19 48 -31 69 -18 25 16 19 37 -16 53 -18 8 -33
19 -33 23 0 13 34 21 38 9 2 -7 11 -12 19 -12 13 0 13 3 3 15 -16 20 -69 20
-76 0z"/>
<path d="M2710 1185 c-14 -17 0 -21 17 -4 12 12 43 6 43 -9 0 -4 -15 -12 -32
-17 -26 -8 -33 -15 -33 -35 0 -23 4 -25 43 -26 l42 -2 0 38 c0 21 -3 45 -6 54
-8 20 -57 21 -74 1z m46 -70 c-21 -16 -36 -11 -36 10 0 16 31 25 45 13 6 -6 3
-14 -9 -23z"/>
</g>
</svg>
